<svg width="35" height="27" viewBox="0 0 35 27" fill="none" xmlns="http://www.w3.org/2000/svg">
<path d="M17.5 6.40801L15.1561 6.55654C13.6405 4.87321 9.39325 0.631866 5.16365 0.631866C5.16365 0.631866 1.69184 5.51684 5.09315 12.0356C4.12387 13.4054 3.52467 14.115 3.40131 15.7489L0 16.2275L0.370091 17.8448L3.4718 17.4157L3.71853 18.5874L0.951662 20.1387L1.77996 21.6075L4.33535 20.1387C6.36203 24.1655 11.4904 26.2119 17.5 26.2119C23.5096 26.2119 28.638 24.1655 30.6647 20.1387L33.22 21.6075L34.0483 20.1387L31.2815 18.5874L31.5282 17.4157L34.6299 17.8448L35 16.2275L31.5987 15.7489C31.4753 14.115 30.8761 13.4054 29.9068 12.0356C33.3082 5.51684 29.8364 0.631866 29.8364 0.631866C25.6067 0.631866 21.3595 4.87321 19.8439 6.55654L17.5 6.40801ZM12.213 11.359C12.6804 11.359 13.1286 11.5329 13.4592 11.8424C13.7897 12.1519 13.9753 12.5716 13.9753 13.0093C13.9753 13.447 13.7897 13.8668 13.4592 14.1763C13.1286 14.4858 12.6804 14.6597 12.213 14.6597C11.7456 14.6597 11.2973 14.4858 10.9668 14.1763C10.6363 13.8668 10.4507 13.447 10.4507 13.0093C10.4507 12.5716 10.6363 12.1519 10.9668 11.8424C11.2973 11.5329 11.7456 11.359 12.213 11.359ZM22.787 11.359C23.2544 11.359 23.7027 11.5329 24.0332 11.8424C24.3637 12.1519 24.5493 12.5716 24.5493 13.0093C24.5493 13.447 24.3637 13.8668 24.0332 14.1763C23.7027 14.4858 23.2544 14.6597 22.787 14.6597C22.3196 14.6597 21.8714 14.4858 21.5408 14.1763C21.2103 13.8668 21.0247 13.447 21.0247 13.0093C21.0247 12.5716 21.2103 12.1519 21.5408 11.8424C21.8714 11.5329 22.3196 11.359 22.787 11.359ZM15.7377 16.31H19.2623L18.0287 18.6039C18.3812 19.6601 19.3681 20.4358 20.5841 20.4358C21.2852 20.4358 21.9576 20.175 22.4533 19.7107C22.9491 19.2465 23.2276 18.6168 23.2276 17.9603H24.1088C24.1088 18.8357 23.7374 19.6752 23.0764 20.2942C22.4154 20.9132 21.5189 21.261 20.5841 21.261C19.2623 21.261 18.1168 20.5843 17.5 19.6106C16.8832 20.5843 15.7377 21.261 14.4159 21.261C13.4811 21.261 12.5846 20.9132 11.9236 20.2942C11.2626 19.6752 10.8912 18.8357 10.8912 17.9603H11.7724C11.7724 18.6168 12.0509 19.2465 12.5467 19.7107C13.0424 20.175 13.7148 20.4358 14.4159 20.4358C15.6319 20.4358 16.6188 19.6601 16.9713 18.6039L15.7377 16.31Z" fill="white"/>
</svg>
